<?xml version="1.0" standalone="no"?>
<!DOCTYPE svg PUBLIC "-//W3C//DTD SVG 20010904//EN"
 "http://www.w3.org/TR/2001/REC-SVG-20010904/DTD/svg10.dtd">
<svg version="1.0" xmlns="http://www.w3.org/2000/svg"
 width="84.000000pt" height="84.000000pt" viewBox="0 0 84.000000 84.000000"
 preserveAspectRatio="xMidYMid meet">
<metadata>
Created by potrace 1.11, written by Peter Selinger 2001-2013
</metadata>
<g transform="translate(0.000000,84.000000) scale(0.100000,-0.100000)"
fill="#000000" stroke="none">
<path d="M389 769 c-85 -9 -145 -36 -204 -90 -192 -177 -150 -486 81 -595 146
-69 302 -44 413 67 240 240 46 653 -290 618z m81 -33 c0 -2 -51 -33 -112 -69
-78 -44 -123 -64 -146 -64 -52 0 -71 -48 -31 -77 27 -18 63 -7 67 22 2 15 37
40 120 88 64 37 126 73 137 80 18 12 27 11 64 -8 41 -20 131 -100 131 -115 0
-5 -51 -37 -113 -73 -76 -44 -123 -64 -146 -65 -27 0 -38 -6 -50 -28 -11 -19
-57 -53 -136 -99 -110 -65 -120 -68 -132 -52 -7 10 -14 26 -14 36 -1 10 -2 22
-3 28 -1 5 87 61 195 124 144 83 203 113 220 109 37 -7 66 29 51 62 -18 38
-80 31 -86 -10 -2 -12 -66 -55 -182 -123 -98 -57 -187 -107 -197 -109 -15 -5
-17 0 -12 37 7 59 16 91 33 125 38 75 112 141 191 170 33 12 151 21 151 11z
m77 -112 c8 -20 -8 -36 -26 -25 -15 10 -8 41 9 41 6 0 13 -7 17 -16z m-319
-61 c5 -18 -28 -29 -38 -12 -5 7 -6 17 -3 22 7 12 35 5 41 -10z m511 -52 c6
-19 8 -38 4 -42 -5 -4 -91 -56 -193 -115 -143 -83 -192 -107 -217 -106 -23 2
-35 -3 -43 -18 -15 -28 -4 -59 25 -66 29 -7 44 1 55 30 6 15 67 57 183 124 97
56 181 103 188 104 27 6 7 -113 -30 -178 -46 -79 -136 -146 -214 -159 -66 -11
-85 -12 -95 -6 -18 11 198 133 223 127 27 -7 65 19 65 44 0 29 -43 54 -69 40
-19 -9 -25 -21 -23 -41 1 -3 -61 -41 -136 -84 l-136 -78 -53 28 c-57 30 -130
102 -116 115 4 5 58 38 120 73 71 42 126 67 149 69 29 2 41 10 53 31 17 29
231 160 242 148 4 -3 11 -21 18 -40z m-293 -110 c-22 -21 -46 0 -26 24 10 12
16 13 27 3 12 -10 12 -13 -1 -27z m214 -151 c0 -21 -24 -28 -35 -10 -8 14 3
30 21 30 8 0 14 -9 14 -20z m-316 -37 c8 -19 -14 -37 -28 -23 -10 10 -1 40 13
40 5 0 12 -8 15 -17z"/>
</g>
</svg>
